<svg width="82" height="82" viewBox="0 0 82 82" fill="none" xmlns="http://www.w3.org/2000/svg">
<rect x="0.5" y="0.5" width="81" height="81" rx="40.5" stroke="url(#paint0_linear_134_6207)"/>
<rect x="0.5" y="0.5" width="81" height="81" rx="40.5" stroke="url(#paint1_linear_134_6207)"/>
<rect x="10.5" y="10.5" width="61" height="61" rx="30.5" stroke="url(#paint2_linear_134_6207)"/>
<rect x="10.5" y="10.5" width="61" height="61" rx="30.5" stroke="url(#paint3_linear_134_6207)"/>
<path d="M28.8922 36.1058C30.8839 38.0975 34.113 38.0975 36.1047 36.1058C36.3494 35.8611 36.5641 35.5977 36.7487 35.3201C37.6624 36.6941 39.2247 37.5996 40.9984 37.5996C42.7724 37.5996 44.3349 36.6939 45.2486 35.3196C45.4332 35.5973 45.648 35.861 45.893 36.1059C47.8846 38.0976 51.1138 38.0976 53.1054 36.1059C55.0971 34.1142 55.0971 30.8851 53.1054 28.8934L52.6079 28.3959C51.9703 27.7582 51.1055 27.4 50.2038 27.4H31.7938C30.8921 27.4 30.0273 27.7582 29.3897 28.3959L28.8922 28.8933C26.9005 30.885 26.9005 34.1142 28.8922 36.1058Z" fill="#A685FA"/>
<path d="M29.0984 39.3548C31.526 40.5592 34.4601 40.3947 36.7494 38.8615C37.9639 39.6741 39.4255 40.1496 40.9984 40.1496C42.5716 40.1496 44.0332 39.6741 45.2478 38.8613C47.5369 40.3946 50.4708 40.5593 52.8984 39.3553V52.05H53.3234C54.0276 52.05 54.5984 52.6209 54.5984 53.325C54.5984 54.0292 54.0276 54.6 53.3234 54.6H45.6734C44.9693 54.6 44.3984 54.0292 44.3984 53.325V47.375C44.3984 46.6709 43.8276 46.1 43.1234 46.1H38.8734C38.1693 46.1 37.5984 46.6709 37.5984 47.375V53.325C37.5984 54.0292 37.0276 54.6 36.3234 54.6H28.6734C27.9693 54.6 27.3984 54.0292 27.3984 53.325C27.3984 52.6209 27.9693 52.05 28.6734 52.05H29.0984V39.3548Z" fill="#A685FA"/>
<defs>
<linearGradient id="paint0_linear_134_6207" x1="6.75" y1="86.5" x2="85.75" y2="-5.5" gradientUnits="userSpaceOnUse">
<stop stop-color="#A685FA"/>
<stop offset="0.323723" stop-color="#A685FA" stop-opacity="0"/>
</linearGradient>
<linearGradient id="paint1_linear_134_6207" x1="81.75" y1="-10.5" x2="6.75" y2="82" gradientUnits="userSpaceOnUse">
<stop stop-color="#A685FA"/>
<stop offset="0.576615" stop-color="#A685FA" stop-opacity="0"/>
</linearGradient>
<linearGradient id="paint2_linear_134_6207" x1="3.25" y1="13.5" x2="71.75" y2="72" gradientUnits="userSpaceOnUse">
<stop stop-color="#A685FA"/>
<stop offset="0.323723" stop-color="#A685FA" stop-opacity="0"/>
</linearGradient>
<linearGradient id="paint3_linear_134_6207" x1="84.25" y1="86" x2="12.25" y2="35" gradientUnits="userSpaceOnUse">
<stop stop-color="#A685FA"/>
<stop offset="0.576615" stop-color="#A685FA" stop-opacity="0"/>
</linearGradient>
</defs>
</svg>
